<?xml version="1.0" encoding="utf-8"?>
<!-- Svg Vector Icons : http://www.onlinewebfonts.com/icon -->
<!DOCTYPE svg PUBLIC "-//W3C//DTD SVG 1.1//EN" "http://www.w3.org/Graphics/SVG/1.1/DTD/svg11.dtd">
<svg version="1.1" xmlns="http://www.w3.org/2000/svg" xmlns:xlink="http://www.w3.org/1999/xlink" x="0px" y="0px" viewBox="0 0 1000 1000" enable-background="new 0 0 1000 1000" xml:space="preserve">
<metadata> Svg Vector Icons : http://www.onlinewebfonts.com/icon </metadata>
<g><g transform="translate(0.000000,511.000000) scale(0.100000,-0.100000)"><path d="M3471.4,4986.2c-90.4-53.3-88.1-113.5,30.1-570c74.2-285,127.4-444.9,152.9-463.4c104.3-76.5,264.2,0,264.2,127.5c0,34.8-46.3,238.7-102,456.5c-78.8,298.9-113.5,400.9-152.9,433.3C3605.8,5016.4,3534,5023.3,3471.4,4986.2z"/><path d="M5068,4981.6c-27.8-20.9-78.8-171.5-155.3-465.8c-62.6-241-113.5-447.2-113.5-458.8c0-11.6,25.5-46.3,57.9-76.5c67.2-69.5,173.8-76.5,229.4-13.9c41.7,46.3,245.6,780.9,245.6,887.5C5332.1,4970,5165.3,5051.1,5068,4981.6z"/><path d="M2067.2,3607.5c-115.9-148.3-53.3-206.2,454.2-424c391.6-169.2,398.5-171.5,458.8-132.1c83.4,53.3,113.5,141.4,76.5,217.8c-23.2,46.3-111.2,95-412.5,227.1C2217.8,3684,2139.1,3697.9,2067.2,3607.5z"/><path d="M6096.8,3498.6c-424-185.4-472.7-227.1-419.4-356.9c16.2-39.4,55.6-83.4,88-97.3c51-23.2,102-7,444.9,136.7c488.9,210.9,488.9,210.9,488.9,322.1c0,104.3-55.6,164.5-152.9,164.5C6509.3,3665.4,6307.7,3591.3,6096.8,3498.6z"/><path d="M4168.9,3174.2c-164.5-37.1-298.9-129.8-387-268.8c-136.7-210.9-141.4-268.8-141.4-1795.8V-276.1l-51,11.6c-308.2,71.8-563.1,108.9-748.4,108.9c-382.3,0-593.2-71.8-790.2-266.5c-157.6-157.6-224.8-329-227.1-579.3c-2.3-159.9,6.9-206.2,71.8-338.3c104.3-224.7,282.7-389.3,560.8-521.4c122.8-57.9,305.9-146,407.8-197c458.8-229.4,841.1-678.9,913-1075.2c13.9-76.5,127.4-477.3,252.6-892.1l227.1-753.1l1564.1-6.9l1564.1-4.6l134.4,850.4c71.8,470.4,143.7,906,157.6,968.6c34.8,164.5,159.9,519,271.1,769.3c176.1,403.2,250.3,829.6,222.4,1304.6c-27.8,498.2-85.7,762.3-227.1,1026.5c-122.8,236.3-294.3,340.6-621,387c-134.4,18.5-150.6,27.8-310.5,183c-315.1,305.9-672,405.5-1086.8,298.9c-81.1-20.9-97.3-16.2-178.4,51c-136.7,108.9-243.3,146-396.3,134.4l-134.4-9.3l-2.3,81.1c-2.3,46.3-9.3,375.4-18.5,732.2c-13.9,646.5-13.9,648.8-78.8,790.2c-76.5,164.5-220.1,315.1-352.2,370.7C4643.9,3197.4,4335.8,3211.2,4168.9,3174.2z M4634.7,2791.9c48.7-23.2,99.6-76.5,127.4-132.1c46.3-88,51-148.3,67.2-1008c11.6-502.8,23.2-917.6,27.8-922.2c2.3-2.3,83.4,13.9,176.1,41.7c92.7,25.5,201.6,46.3,241,46.3c102-2.3,264.2-83.4,373.1-187.7l92.7-92.7l162.2,62.6c113.5,44,206.2,62.6,322.1,62.6c234,4.6,368.4-64.9,597.8-301.2l183.1-187.7l187.7-16.2c104.3-9.3,222.5-30.1,259.5-46.3c229.4-95,345.3-493.6,342.9-1181.8c0-426.4-30.1-602.5-157.6-910.7c-273.4-653.4-315.1-801.8-442.6-1626.7c-46.3-298.9-95-604.8-106.6-676.6l-23.2-134.4H5797.9H4532.7L4352-3809.8c-99.6,333.7-194.7,678.9-213.2,767c-118.2,563.1-658.1,1154-1286,1404.2c-447.2,180.7-611.7,324.4-660.4,581.6c-39.4,215.5,127.4,456.5,354.5,505.1c296.6,62.6,634.9,23.2,1135.4-134.4c164.5-53.3,305.9-95,315.1-95c7,0,13.9,732.2,13.9,1629c0,1737.9,4.6,1802.8,113.5,1902.4C4222.2,2838.2,4500.3,2861.4,4634.7,2791.9z"/><path d="M2595.5,2061.9c-210.9-78.8-403.2-157.6-424-176.1c-90.4-74.2-13.9-280.4,106.6-280.4c25.5,0,222.4,62.6,433.3,141.3c419.4,153,505.2,210.9,477.3,319.8c-20.9,88.1-78.8,141.4-148.3,139C3008,2205.6,2806.4,2140.7,2595.5,2061.9z"/><path d="M5589.4,2147.7c-55.6-69.5-62.6-143.7-18.5-201.6c30.1-44,806.4-340.6,887.5-340.6c62.6,0,148.3,99.6,148.3,171.5c0,27.8-13.9,69.5-30.1,90.4c-32.4,46.3-801.7,340.6-885.2,340.6C5661.2,2207.9,5614.8,2182.4,5589.4,2147.7z"/></g></g>
</svg>