<?xml version="1.0" encoding="utf-8"?>
<!-- Svg Vector Icons : http://www.onlinewebfonts.com/icon -->
<!DOCTYPE svg PUBLIC "-//W3C//DTD SVG 1.1//EN" "http://www.w3.org/Graphics/SVG/1.1/DTD/svg11.dtd">
<svg version="1.1" xmlns="http://www.w3.org/2000/svg" xmlns:xlink="http://www.w3.org/1999/xlink" x="0px" y="0px" viewBox="0 0 1000 1000" enable-background="new 0 0 1000 1000" xml:space="preserve">
<metadata> Svg Vector Icons : http://www.onlinewebfonts.com/icon </metadata>
<g><path d="M861.3,365.7c14.9,42,23.1,87.2,23.1,134.3c0,221.7-180.4,402.1-402.1,402.1S80.1,721.7,80.1,500c0-221.7,180.4-402.1,402.1-402.1c68.8,0,133.6,17.4,190.3,47.9l56.8-48.3c-20.2-12.4-41.3-23.3-63.3-32.6C607.8,40.2,546,27.8,482.2,27.8c-63.7,0-125.6,12.5-183.8,37.1c-56.2,23.8-106.7,57.8-150.1,101.2C105,209.4,70.9,259.9,47.1,316.2C22.5,374.4,10,436.3,10,500c0,63.7,12.5,125.6,37.1,183.8c23.8,56.2,57.8,106.7,101.2,150.1c43.4,43.4,93.9,77.4,150.1,101.2c58.2,24.6,120.1,37.1,183.8,37.1c63.7,0,125.6-12.5,183.8-37.1c56.2-23.8,106.7-57.8,150.1-101.2c43.4-43.4,77.4-93.9,101.2-150.1c24.6-58.2,37.1-120.1,37.1-183.8c0-63.1-12.2-124.4-36.4-182.1L861.3,365.7z"/><path d="M482.2,206.1c-78.5,0-152.3,30.6-207.9,86.1c-55.5,55.5-86.1,129.3-86.1,207.9c0,78.5,30.6,152.3,86.1,207.8c55.5,55.5,129.3,86.1,207.9,86.1c78.5,0,152.3-30.6,207.8-86.1c55.5-55.5,86.1-129.3,86.1-207.8c0-24-2.9-47.6-8.5-70.4c-0.3,0-0.6,0-1,0h0c-3.7,0-7.5-0.4-11.4-1.1l-46.8-6.7l-12.8,10.9c6.7,21.3,10.4,43.9,10.4,67.3c0,123.4-100.4,223.8-223.8,223.8c-123.4,0-223.8-100.4-223.8-223.8c0-123.4,100.4-223.8,223.8-223.8c34.7,0,67.6,7.9,97,22.1l14.6-12.3l-0.3-47c-0.1-3.7,0.2-7.3,0.8-10.8C559.3,213.6,521.4,206.1,482.2,206.1z"/><path d="M989.3,161.8c-2.1-7.4-8.3-12.8-15.9-14l-69.5-10.5l0.8-70.7c0.1-7.6-4.3-14.6-11.2-17.9c-6.9-3.3-15.1-2.2-20.9,2.8L658.7,232.6c-4.3,3.6-6.8,9-6.9,14.6l-0.9,64.9L527,417c-13.3-7.2-28.6-11.3-44.8-11.3c-52.1,0-94.3,42.2-94.3,94.3c0,52.1,42.2,94.3,94.3,94.3c52.1,0,94.3-42.2,94.3-94.3c0-14-3.1-27.4-8.6-39.3l121.6-102.9l64.1,9.8c5.6,0.9,11.3-0.8,15.6-4.4L983.1,182C988.9,177.1,991.3,169.2,989.3,161.8z"/></g>
</svg>